<svg xmlns="http://www.w3.org/2000/svg" viewBox="0 0 98.44 74.5"><defs><style>.cls-1{fill:#fff;}.cls-2{fill:none;stroke:#fff;stroke-miterlimit:10;stroke-width:1.5px;}</style></defs><title>ufjf_barra</title><g id="Layer_2" data-name="Layer 2"><g id="Layer_1-2" data-name="Layer 1"><path class="cls-1" d="M82.1,0h-.86a11.46,11.46,0,0,0-9.82,5.22q-3.63,5.12-3.78,13.86h0v.55c-.2,0-.53,0-1,.07H65.7A24.06,24.06,0,0,1,63,19.57v2.6c.43,0,.91-.06,1.43-.08s1.64,0,3,0V30.3q0,9.39-.13,13.87c-.07,3-.2,5.25-.36,6.8.57-.1,1.13-.2,1.64-.26a12.47,12.47,0,0,1,1.46-.08,12.64,12.64,0,0,1,1.5.1c.51.06,1.05.15,1.6.24-.2-2.29-.36-5.76-.43-10.39s-.11-10.74-.12-18.49c.4,0,1,0,1.75.07,2.62,0,5.33.06,6.27.08V19.62c-1,0-2.83.07-3.44.09H72.38v-.43c-.16-1.75-.29-3.37-.39-4.83s-.15-2.68-.15-3.51a6.7,6.7,0,0,1,1.5-4.77,5.9,5.9,0,0,1,4.49-1.58,10.33,10.33,0,0,1,2.12.22A9.22,9.22,0,0,1,82,5.38L82.7.07,82.1,0"/><path class="cls-1" d="M57.17,19.61c-.43.08-.9.16-1.4.23a14.15,14.15,0,0,1-1.62.09,13.54,13.54,0,0,1-1.57-.08,12.83,12.83,0,0,1-1.36-.24c.15,3.23.28,7.85.38,13.8s.15,12.64.15,20.08c0,8.31-.37,13.63-1.52,15.7S48.35,72,45.41,72.67l.24,1.83h.41c4.44-.48,6.48-2,8.28-4.43S57,63.43,57,57.54V27.67q0-1.8,0-3.84t.15-4.27"/><path class="cls-1" d="M21.88,19.59a6.34,6.34,0,0,1-.82.14H18.53a6.76,6.76,0,0,1-.86-.13q.21,3.17.32,6.8t.1,7.79a60.8,60.8,0,0,1-.3,7.18,11,11,0,0,1-1,3.56,6.12,6.12,0,0,1-2.34,2.52,6.53,6.53,0,0,1-3.1.86,5.59,5.59,0,0,1-3.15-1,5.45,5.45,0,0,1-2-2.89,14.62,14.62,0,0,1-.56-2.87Q5.52,39.89,5.52,36q0-4.82.13-8.84c.08-2.68.23-5.2.42-7.56-.45.06-.92.1-1.4.14s-1,0-1.57,0H1.46A11.16,11.16,0,0,1,0,19.61c.11,1.48.21,3.1.26,4.84s.09,4,.09,6.86v4a57,57,0,0,0,.36,7.6,11.19,11.19,0,0,0,1.22,3.9A7.7,7.7,0,0,0,5.41,50a12.78,12.78,0,0,0,5.49,1,11.93,11.93,0,0,0,5-1,8.59,8.59,0,0,0,3.5-3,10.89,10.89,0,0,0,1.72-4,35.69,35.69,0,0,0,.51-6.87V29.45c0-1.2,0-2.63.08-4.26s.14-3.49.25-5.55"/><path class="cls-1" d="M46.81,0H46a11.45,11.45,0,0,0-9.82,5.22q-3.63,5.12-3.78,13.86h0v.55c-.2,0-.53,0-1,.07h-.94a24.06,24.06,0,0,1-2.68-.13v2.6c.43,0,.91-.06,1.43-.08s1.64,0,3,0V30.3q0,9.39-.13,13.87c-.07,3-.2,5.25-.36,6.8.57-.1,1.13-.2,1.64-.26a12.47,12.47,0,0,1,1.46-.08,12.63,12.63,0,0,1,1.5.1c.51.06,1,.15,1.6.24-.2-2.29-.36-5.76-.43-10.39s-.11-10.74-.12-18.49c.4,0,1,0,1.75.07,2.62,0,5.33.06,6.27.08V19.62c-1,0-2.83.07-3.44.09H37.09v-.43c-.16-1.75-.29-3.37-.39-4.83s-.15-2.68-.15-3.51a6.7,6.7,0,0,1,1.5-4.77,5.91,5.91,0,0,1,4.49-1.58,10.33,10.33,0,0,1,2.12.22,9.21,9.21,0,0,1,1.91.61l.7-5.31L46.81,0"/><line class="cls-2" x1="97.69" y1="2.67" x2="97.69" y2="70.67"/></g></g></svg>